<svg width="236" height="184" viewBox="0 0 236 184" fill="none" xmlns="http://www.w3.org/2000/svg">
<path fill-rule="evenodd" clip-rule="evenodd" d="M56.9453 121.58L2.86622 121.58C1.63295 121.58 0.633189 120.58 0.63319 119.347L0.633195 112.195C0.633195 110.962 1.63295 109.962 2.86622 109.962L53.8615 109.962C54.6328 113.887 55.6611 117.769 56.9453 121.58ZM56.7104 63.4903C60.6438 51.5218 67.1203 40.184 76.1759 30.3124C110.304 -6.89099 168.333 -9.38949 205.533 24.7355C242.733 58.8605 245.238 116.889 211.11 154.092C176.982 191.295 118.953 193.794 81.7528 159.669C70.0005 148.888 61.711 135.722 56.9453 121.58L79.7256 121.58C80.9588 121.58 81.9586 120.58 81.9586 119.347L81.9586 112.195C81.9586 110.962 80.9588 109.962 79.7256 109.962L53.8615 109.962C53.107 106.122 52.5986 102.241 52.3373 98.3439L97.1536 98.3439C98.3869 98.3439 99.3866 97.3441 99.3866 96.1109L99.3866 88.959C99.3866 87.7258 98.3869 86.726 97.1536 86.726L52.2907 86.726C52.5204 82.8348 52.9969 78.9536 53.7215 75.1081L79.7275 75.1081C80.9607 75.1081 81.9605 74.1084 81.9605 72.8751L81.9605 65.7233C81.9605 64.49 80.9607 63.4903 79.7275 63.4903L56.7104 63.4903ZM56.7104 63.4903C55.4558 67.3078 54.4599 71.1894 53.7215 75.1081L2.86815 75.1081C1.63487 75.1081 0.635115 74.1084 0.635115 72.8751L0.63511 65.7233C0.63511 64.49 1.63487 63.4903 2.86815 63.4903L56.7104 63.4903ZM52.2907 86.726L31.9122 86.726C30.6789 86.726 29.6792 87.7258 29.6792 88.9591L29.6791 96.1109C29.6791 97.3441 30.6789 98.3439 31.9122 98.3439L52.3373 98.3439C52.0782 94.4782 52.0623 90.5971 52.2907 86.726ZM188.621 133.462C211.372 108.661 209.704 69.9751 184.903 47.2244C162.33 26.5175 128.254 26.039 105.161 44.8194C101.333 47.9318 101.612 53.6457 105.247 56.9804L137.061 86.1642C140.696 89.4989 140.94 95.1491 137.605 98.7843L108.421 130.598C105.086 134.233 105.3 139.95 109.381 142.721C134.006 159.444 167.914 156.035 188.621 133.462Z" fill="#008EFF"/>
</svg>

