<?xml version="1.0" standalone="no"?>

<!DOCTYPE svg PUBLIC "-//W3C//DTD SVG 20010904//EN"

 "http://www.w3.org/TR/2001/REC-SVG-20010904/DTD/svg10.dtd">

<svg version="1.0" xmlns="http://www.w3.org/2000/svg"

 width="130pt" height="130pt" viewBox="90 0 40 130"

 preserveAspectRatio="xMidYMid meet">

<g transform="translate(0,130) scale(0.1,-0.1)"

fill="#000000" stroke="none">

<path d="M1114 1197 c-3 -8 -4 -41 -2 -73 2 -47 7 -59 21 -62 16 -3 18 4 15

69 -2 47 -7 74 -15 77 -7 2 -15 -3 -19 -11z"/>

<path d="M996 1103 c-14 -14 -4 -29 29 -47 36 -20 52 -17 42 6 -6 17 -62 49

-71 41z"/>

<path d="M1211 1079 c-17 -14 -21 -23 -14 -30 13 -13 73 18 73 38 0 19 -32 15

-59 -8z"/>

<path d="M910 1071 c0 -18 86 -81 110 -81 26 0 4 31 -45 64 -63 42 -65 42 -65

17z"/>

<path d="M1283 1052 c-50 -35 -67 -62 -40 -62 20 0 119 70 114 83 -6 20 -21 16

-74 -21z"/>

<path d="M1088 1013 c-8 -10 -34 -50 -57 -90 l-42 -71 -58 5 c-95 9 -162 -35

-209 -136 -31 -68 -27 -147 12 -218 l27 -47 -31 -49 c-16 -26 -30 -50 -30 -51

0 -2 -16 -30 -35 -62 -19 -32 -35 -63 -35 -69 0 -7 11 -24 25 -39 l24 -26 183

0 184 0 39 -40 c21 -22 42 -40 46 -40 4 0 26 18 48 40 l40 40 185 0 185 0 21

27 c27 35 23 49 -48 169 l-58 98 28 56 c57 113 27 246 -70 315 -39 27 -52 30

-118 30 l-73 0 -46 82 c-25 44 -53 84 -61 87 -29 11 -61 6 -76 -11z m62 -43

c0 -9 46 -93 71 -130 8 -12 -1 -27 -42 -69 -44 -46 -53 -51 -61 -37 -5 9 -27

34 -49 55 l-40 38 19 24 c11 13 32 48 47 77 24 46 55 70 55 42z m-192 -168

c-1 -4 -36 -64 -75 -134 -40 -69 -73 -130 -73 -136 0 -5 -6 -12 -14 -15 -17

-7 -46 68 -46 117 0 85 87 176 167 176 25 0 43 -4 41 -8z m450 -6 c58 -30 102

-101 102 -164 0 -38 -16 -99 -30 -115 -4 -4 -33 39 -65 95 -32 57 -71 122 -86

144 -16 23 -25 44 -22 48 11 11 73 6 101 -8z m-359 -61 c17 -20 40 -53 51 -75

11 -22 24 -40 29 -40 5 0 21 20 35 44 34 57 75 106 89 106 7 0 47 -62 90 -138

43 -75 83 -145 90 -155 10 -15 -8 -37 -146 -175 l-158 -157 -150 154 c-137

142 -164 180 -140 195 5 3 43 66 85 141 43 74 81 135 86 135 4 0 22 -16 39

-35z m-163 -416 c49 -49 91 -94 92 -100 2 -5 -55 -9 -142 -9 -102 0 -146 3

-146 11 0 11 98 189 104 189 2 0 43 -41 92 -91z m594 79 c0 -6 20 -44 45 -84

67 -108 71 -104 -100 -104 -80 0 -145 2 -145 3 0 8 185 197 193 197 4 0 7 -5

7 -12z"/>

</g>

</svg>
